{
  "accessors": [
    {
      "bufferView": 0,
      "componentType": 5126,
      "count": 24,
      "min": [
        -5.0,
        -5.0,
        -0.05000000074505806
      ],
      "max": [
        5.0,
        5.0,
        0.05000000074505806
      ],
      "type": "VEC3"
    },
    {
      "bufferView": 1,
      "componentType": 5126,
      "count": 24,
      "type": "VEC3"
    },
    {
      "bufferView": 2,
      "componentType": 5126,
      "count": 24,
      "type": "VEC2"
    },
    {
      "bufferView": 3,
      "componentType": 5123,
      "count": 36,
      "type": "SCALAR"
    },
    {
      "bufferView": 4,
      "componentType": 5126,
      "count": 24,
      "min": [
        -5.0,
        -0.05000000074505806,
        -5.0
      ],
      "max": [
        5.0,
        0.05000000074505806,
        5.0
      ],
      "type": "VEC3"
    },
    {
      "bufferView": 5,
      "componentType": 5126,
      "count": 24,
      "type": "VEC3"
    },
    {
      "bufferView": 6,
      "componentType": 5126,
      "count": 24,
      "type": "VEC2"
    },
    {
      "bufferView": 7,
      "componentType": 5126,
      "count": 24,
      "min": [
        -0.05000000074505806,
        -5.0,
        -5.0
      ],
      "max": [
        0.05000000074505806,
        5.0,
        5.0
      ],
      "type": "VEC3"
    },
    {
      "bufferView": 8,
      "componentType": 5126,
      "count": 24,
      "type": "VEC3"
    },
    {
      "bufferView": 9,
      "componentType": 5126,
      "count": 24,
      "type": "VEC2"
    },
    {
      "bufferView": 10,
      "componentType": 5126,
      "count": 24,
      "min": [
        -0.05000000074505806,
        -5.0,
        -5.0
      ],
      "max": [
        0.05000000074505806,
        5.0,
        5.0
      ],
      "type": "VEC3"
    },
    {
      "bufferView": 11,
      "componentType": 5126,
      "count": 24,
      "type": "VEC3"
    },
    {
      "bufferView": 12,
      "componentType": 5126,
      "count": 24,
      "type": "VEC2"
    },
    {
      "bufferView": 13,
      "componentType": 5126,
      "count": 24,
      "min": [
        -0.5,
        -0.05000000074505806,
        -0.5
      ],
      "max": [
        0.5,
        0.05000000074505806,
        0.5
      ],
      "type": "VEC3"
    },
    {
      "bufferView": 14,
      "componentType": 5126,
      "count": 24,
      "type": "VEC3"
    },
    {
      "bufferView": 15,
      "componentType": 5126,
      "count": 24,
      "type": "VEC2"
    },
    {
      "bufferView": 16,
      "componentType": 5126,
      "count": 24,
      "min": [
        -0.5,
        -0.5,
        -0.5
      ],
      "max": [
        0.5,
        0.5,
        0.5
      ],
      "type": "VEC3"
    },
    {
      "bufferView": 17,
      "componentType": 5126,
      "count": 24,
      "type": "VEC3"
    },
    {
      "bufferView": 18,
      "componentType": 5126,
      "count": 24,
      "type": "VEC2"
    },
    {
      "bufferView": 19,
      "componentType": 5126,
      "count": 24,
      "min": [
        -1.25,
        -3.0,
        -1.25
      ],
      "max": [
        1.25,
        3.0,
        1.25
      ],
      "type": "VEC3"
    },
    {
      "bufferView": 20,
      "componentType": 5126,
      "count": 24,
      "type": "VEC3"
    },
    {
      "bufferView": 21,
      "componentType": 5126,
      "count": 24,
      "type": "VEC2"
    },
    {
      "bufferView": 22,
      "componentType": 5126,
      "count": 8320,
      "min": [
        -1.0,
        -1.0,
        -1.0
      ],
      "max": [
        1.0,
        1.0,
        1.0
      ],
      "type": "VEC3"
    },
    {
      "bufferView": 23,
      "componentType": 5126,
      "count": 8320,
      "type": "VEC3"
    },
    {
      "bufferView": 24,
      "componentType": 5126,
      "count": 8320,
      "type": "VEC2"
    },
    {
      "bufferView": 25,
      "componentType": 5123,
      "count": 24954,
      "type": "SCALAR"
    },
    {
      "bufferView": 26,
      "componentType": 5126,
      "count": 8320,
      "min": [
        -1.0,
        -1.0,
        -1.0
      ],
      "max": [
        1.0,
        1.0,
        1.0
      ],
      "type": "VEC3"
    },
    {
      "bufferView": 27,
      "componentType": 5126,
      "count": 8320,
      "type": "VEC3"
    },
    {
      "bufferView": 28,
      "componentType": 5126,
      "count": 8320,
      "type": "VEC2"
    },
    {
      "bufferView": 29,
      "componentType": 5126,
      "count": 224473,
      "min": [
        -141.44540405273438,
        -257.1471862792969,
        -866.5087280273438
      ],
      "max": [
        153.5471954345703,
        205.8334045410156,
        -11.90410041809082
      ],
      "type": "VEC3"
    },
    {
      "bufferView": 30,
      "componentType": 5126,
      "count": 224473,
      "type": "VEC3"
    },
    {
      "bufferView": 31,
      "componentType": 5125,
      "count": 1346604,
      "type": "SCALAR"
    }
  ],
  "asset": {
    "generator": "Khronos glTF Blender I/O v3.3.32",
    "version": "2.0"
  },
  "bufferViews": [
    {
      "buffer": 0,
      "byteLength": 288,
      "target": 34962
    },
    {
      "buffer": 0,
      "byteLength": 288,
      "byteOffset": 288,
      "target": 34962
    },
    {
      "buffer": 0,
      "byteLength": 192,
      "byteOffset": 576,
      "target": 34962
    },
    {
      "buffer": 0,
      "byteLength": 72,
      "byteOffset": 768,
      "target": 34963
    },
    {
      "buffer": 0,
      "byteLength": 288,
      "byteOffset": 840,
      "target": 34962
    },
    {
      "buffer": 0,
      "byteLength": 288,
      "byteOffset": 1128,
      "target": 34962
    },
    {
      "buffer": 0,
      "byteLength": 192,
      "byteOffset": 1416,
      "target": 34962
    },
    {
      "buffer": 0,
      "byteLength": 288,
      "byteOffset": 1608,
      "target": 34962
    },
    {
      "buffer": 0,
      "byteLength": 288,
      "byteOffset": 1896,
      "target": 34962
    },
    {
      "buffer": 0,
      "byteLength": 192,
      "byteOffset": 2184,
      "target": 34962
    },
    {
      "buffer": 0,
      "byteLength": 288,
      "byteOffset": 2376,
      "target": 34962
    },
    {
      "buffer": 0,
      "byteLength": 288,
      "byteOffset": 2664,
      "target": 34962
    },
    {
      "buffer": 0,
      "byteLength": 192,
      "byteOffset": 2952,
      "target": 34962
    },
    {
      "buffer": 0,
      "byteLength": 288,
      "byteOffset": 3144,
      "target": 34962
    },
    {
      "buffer": 0,
      "byteLength": 288,
      "byteOffset": 3432,
      "target": 34962
    },
    {
      "buffer": 0,
      "byteLength": 192,
      "byteOffset": 3720,
      "target": 34962
    },
    {
      "buffer": 0,
      "byteLength": 288,
      "byteOffset": 3912,
      "target": 34962
    },
    {
      "buffer": 0,
      "byteLength": 288,
      "byteOffset": 4200,
      "target": 34962
    },
    {
      "buffer": 0,
      "byteLength": 192,
      "byteOffset": 4488,
      "target": 34962
    },
    {
      "buffer": 0,
      "byteLength": 288,
      "byteOffset": 4680,
      "target": 34962
    },
    {
      "buffer": 0,
      "byteLength": 288,
      "byteOffset": 4968,
      "target": 34962
    },
    {
      "buffer": 0,
      "byteLength": 192,
      "byteOffset": 5256,
      "target": 34962
    },
    {
      "buffer": 0,
      "byteLength": 99840,
      "byteOffset": 5448,
      "target": 34962
    },
    {
      "buffer": 0,
      "byteLength": 99840,
      "byteOffset": 105288,
      "target": 34962
    },
    {
      "buffer": 0,
      "byteLength": 66560,
      "byteOffset": 205128,
      "target": 34962
    },
    {
      "buffer": 0,
      "byteLength": 49908,
      "byteOffset": 271688,
      "target": 34963
    },
    {
      "buffer": 0,
      "byteLength": 99840,
      "byteOffset": 321596,
      "target": 34962
    },
    {
      "buffer": 0,
      "byteLength": 99840,
      "byteOffset": 421436,
      "target": 34962
    },
    {
      "buffer": 0,
      "byteLength": 66560,
      "byteOffset": 521276,
      "target": 34962
    },
    {
      "buffer": 0,
      "byteLength": 2693676,
      "byteOffset": 587836,
      "target": 34962
    },
    {
      "buffer": 0,
      "byteLength": 2693676,
      "byteOffset": 3281512,
      "target": 34962
    },
    {
      "buffer": 0,
      "byteLength": 5386416,
      "byteOffset": 5975188,
      "target": 34963
    }
  ],
  "materials": [
    {
      "name": "cube_instance_material",
      "doubleSided": true,
      "pbrMetallicRoughness": {
        "metallicFactor": 0.0
      }
    },
    {
      "name": "cube_instance_2_material",
      "doubleSided": true,
      "pbrMetallicRoughness": {
        "metallicFactor": 0.0
      }
    },
    {
      "name": "gltf_material_mat",
      "doubleSided": true,
      "pbrMetallicRoughness": {
        "baseColorFactor": [
          0.054592281579971316,
          1.0,
          0.0,
          1.0
        ],
        "metallicFactor": 0.0
      }
    },
    {
      "name": "cube_instance_5_material",
      "doubleSided": true,
      "pbrMetallicRoughness": {
        "baseColorFactor": [
          1.0,
          0.0,
          0.00010718735575210304,
          1.0
        ],
        "metallicFactor": 0.0
      }
    },
    {
      "name": "cube_instance_8_material",
      "doubleSided": true,
      "emissiveFactor": [
        1.0,
        1.0,
        1.0
      ],
      "pbrMetallicRoughness": {
        "metallicFactor": 0.0,
        "roughnessFactor": 0.0
      }
    },
    {
      "name": "cube_instance_14_material",
      "doubleSided": true,
      "pbrMetallicRoughness": {
        "baseColorFactor": [
          0.5,
          0.5,
          0.5,
          1.0
        ]
      }
    },
    {
      "name": "cube_instance_16_material",
      "doubleSided": true
    },
    {
      "name": "sphere_instance_material",
      "doubleSided": true,
      "pbrMetallicRoughness": {
        "baseColorFactor": [
          0.949999988079071,
          0.949999988079071,
          0.949999988079071,
          0.050000011920928958
        ],
        "roughnessFactor": 0.0
      }
    },
    {
      "name": "sphere_instance_22_material",
      "doubleSided": true,
      "pbrMetallicRoughness": {
        "metallicFactor": 0.0,
        "roughnessFactor": 0.0
      },
      "extensions": {
        "KHR_materials_ior": {
          "ior": 1.5
        },
        "KHR_materials_transmission": {
          "transmissionFactor": 1.0
        },
                "KHR_materials_dispersion": {
                    "dispersion": 0.36
                },
        "KHR_materials_volume": {
          "attenuationColor": [
            0.9,
            0.9,
            0.9
          ],
          "attenuationDistance": 1.8,
          "thicknessFactor": 1.0
        },
        "NV_materials_mdl": {
          "mdl_shader": 11
        }
      }
    },
    {
      "name": "Lucy",
      "doubleSided": true,
      "pbrMetallicRoughness": {
        "metallicFactor": 0.1,
        "roughnessFactor": 0.0
      },
      "extensions": {
        "KHR_materials_ior": {
          "ior": 1.5
        },
        "KHR_materials_transmission": {
          "transmissionFactor": 1.0
        },
                "KHR_materials_dispersion": {
                    "dispersion": 0.36
                },
        "KHR_materials_volume": {
          "attenuationColor": [
            0.9,
            0.9,
            0.9
          ],
          "attenuationDistance": 1.0,
          "thicknessFactor": 1.0
        },
        "NV_materials_mdl": {
          "mdl_shader": 11
        }
      }
    }
  ],
  "meshes": [
    {
      "primitives": [
        {
          "attributes": {
            "NORMAL": 1,
            "POSITION": 0,
            "TEXCOORD_0": 2
          },
          "indices": 3,
          "material": 0,
          "mode": 4
        }
      ],
      "name": "cube"
    },
    {
      "primitives": [
        {
          "attributes": {
            "NORMAL": 5,
            "POSITION": 4,
            "TEXCOORD_0": 6
          },
          "indices": 3,
          "material": 1,
          "mode": 4
        }
      ],
      "name": "cube_1"
    },
    {
      "primitives": [
        {
          "attributes": {
            "NORMAL": 8,
            "POSITION": 7,
            "TEXCOORD_0": 9
          },
          "indices": 3,
          "material": 2,
          "mode": 4
        }
      ],
      "name": "cube_4"
    },
    {
      "primitives": [
        {
          "attributes": {
            "NORMAL": 11,
            "POSITION": 10,
            "TEXCOORD_0": 12
          },
          "indices": 3,
          "material": 3,
          "mode": 4
        }
      ],
      "name": "cube_4.001"
    },
    {
      "primitives": [
        {
          "attributes": {
            "NORMAL": 14,
            "POSITION": 13,
            "TEXCOORD_0": 15
          },
          "indices": 3,
          "material": 4,
          "mode": 4
        }
      ],
      "name": "cube_7"
    },
    {
      "primitives": [
        {
          "attributes": {
            "NORMAL": 17,
            "POSITION": 16,
            "TEXCOORD_0": 18
          },
          "indices": 3,
          "material": 5,
          "mode": 4
        }
      ],
      "name": "cube_13"
    },
    {
      "primitives": [
        {
          "attributes": {
            "NORMAL": 20,
            "POSITION": 19,
            "TEXCOORD_0": 21
          },
          "indices": 3,
          "material": 6,
          "mode": 4
        }
      ],
      "name": "cube_15"
    },
    {
      "primitives": [
        {
          "attributes": {
            "NORMAL": 23,
            "POSITION": 22,
            "TEXCOORD_0": 24
          },
          "indices": 25,
          "material": 7,
          "mode": 4
        }
      ],
      "name": "sphere"
    },
    {
      "primitives": [
        {
          "attributes": {
            "NORMAL": 27,
            "POSITION": 26,
            "TEXCOORD_0": 28
          },
          "indices": 25,
          "material": 8,
          "mode": 4
        }
      ],
      "name": "sphere_21"
    },
    {
      "primitives": [
        {
          "attributes": {
            "NORMAL": 30,
            "POSITION": 29
          },
          "indices": 31,
          "material": 9,
          "mode": 4
        }
      ],
      "name": "lucy"
    }
  ],
  "nodes": [
    {
      "translation": [
        0.0,
        0.0,
        -5.0
      ],
      "mesh": 0,
      "name": "cube_instance"
    },
    {
      "translation": [
        0.0,
        -5.0,
        0.0
      ],
      "mesh": 1,
      "name": "cube_instance_2"
    },
    {
      "translation": [
        0.0,
        5.0,
        0.0
      ],
      "mesh": 1,
      "name": "cube_instance_3"
    },
    {
      "translation": [
        -5.0,
        0.0,
        0.0
      ],
      "mesh": 2,
      "name": "cube_instance_5"
    },
    {
      "translation": [
        5.0,
        0.0,
        0.0
      ],
      "mesh": 3,
      "name": "cube_instance_6"
    },
    {
      "translation": [
        0.0,
        4.626189708709717,
        0.0
      ],
      "scale": [
        3.0,
        1.0,
        3.0
      ],
      "mesh": 4,
      "name": "cube_instance_8"
    },
    {
      "translation": [
        3.0,
        -3.5,
        1.6790000200271607
      ],
      "rotation": [
        0.0,
        0.46174857020378115,
        0.0,
        0.8870108127593994
      ],
      "scale": [
        2.5,
        2.5,
        2.5
      ],
      "mesh": 5,
      "name": "cube_instance_14"
    },
    {
      "translation": [
        -2.5,
        -2.0,
        -2.0
      ],
      "rotation": [
        0.0,
        0.026176944375038148,
        0.0,
        0.9996573328971864
      ],
      "mesh": 6,
      "name": "cube_instance_16"
    },
    {
      "translation": [
        3.311300039291382,
        -1.0,
        0.08760000020265579
      ],
      "mesh": 7,
      "name": "sphere_instance"
    },
    {
      "translation": [
        -3.0,
        -4.0,
        3.0
      ],
      "mesh": 8,
      "name": "sphere_instance_22"
    },
    {
      "translation": [
        -0.33713316917419436,
        -5.119440078735352,
        1.06102454662323
      ],
      "rotation": [
        0.6395068764686585,
        0.30171337723731997,
        -0.30171340703964236,
        0.6395068764686585
      ],
      "scale": [
        0.007677134592086077,
        0.007677134592086077,
        0.007677134592086077
      ],
      "mesh": 9,
      "name": "lucy"
    },
    {
      "name": "Scene",
      "children": [
        0,
        1,
        2,
        3,
        4,
        5,
        6,
        7,
        8,
        9,
        10,
        12
      ]
    },
    {
      "translation": [
        0.0,
        0.0,
        21.055126190185548
      ],
      "rotation": [
        0.0,
        -0.0,
        -0.0,
        1.0
      ],
      "camera": 0,
      "extras": {
        "camera::center": [
          0.0,
          0.0,
          -0.02500009536743164
        ],
        "camera::eye": [
          0.0,
          0.0,
          21.055126190185548
        ],
        "camera::up": [
          0.0,
          1.0,
          0.0
        ]
      },
      "name": "Camera"
    }
  ],
  "scene": 0,
  "scenes": [
    {
      "nodes": [
        11
      ],
      "name": "Scene"
    }
  ],
  "cameras": [
    {
      "type": "perspective",
      "name": "Camera",
      "perspective": {
        "zfar": 873.2446899414063,
        "znear": 0.008732447400689125,
        "aspectRatio": 1.7777777910232545,
        "yfov": 0.7853981852531433
      }
    }
  ],
  "buffers": [
    {
      "byteLength": 11361604,
      "uri": "cornellBoxLucy.bin"
    }
  ]
}
