{
  "accessors": [
    {
      "bufferView": 0,
      "componentType": 5126,
      "count": 421545,
      "min": [
        -10.660306930541993,
        -1.638411045074463,
        -9.070286750793456
      ],
      "max": [
        10.394182205200196,
        17.667842864990236,
        14.88519287109375
      ],
      "type": "VEC3"
    },
    {
      "bufferView": 1,
      "componentType": 5126,
      "count": 421545,
      "type": "VEC3"
    },
    {
      "bufferView": 2,
      "componentType": 5126,
      "count": 421545,
      "type": "VEC2"
    },
    {
      "bufferView": 3,
      "componentType": 5125,
      "count": 2495436,
      "type": "SCALAR"
    }
  ],
  "asset": {
    "generator": "OBJ converter",
    "copyright": "NVIDIA Corporation",
    "version": "2.0"
  },
  "bufferViews": [
    {
      "buffer": 0,
      "byteLength": 5058540,
      "byteStride": 12,
      "target": 34962
    },
    {
      "buffer": 0,
      "byteLength": 5058540,
      "byteStride": 12,
      "byteOffset": 5058540,
      "target": 34962
    },
    {
      "buffer": 0,
      "byteLength": 3372360,
      "byteStride": 8,
      "byteOffset": 10117080,
      "target": 34962
    },
    {
      "buffer": 0,
      "byteLength": 9981744,
      "byteOffset": 13489440,
      "target": 34963
    }
  ],
  "materials": [
    {
      "name": "Material-0",
      "doubleSided": true,
      "pbrMetallicRoughness": {
        "baseColorFactor": [
          0.1790228933095932,
          0.3162357211112976,
          0.6692678928375244,
          1.0
        ],
        "metallicFactor": 0.0,
        "roughnessFactor": 0.0
      },
      "extensions": {
        "KHR_materials_ior": {
          "ior": 1.450000047683716
        },
        "KHR_materials_transmission": {
          "transmissionFactor": 1
        },
                "KHR_materials_dispersion": {
                    "dispersion": 0.36
                },
        "KHR_materials_volume": {
          "thicknessFactor": 1
        }
      }
    }
  ],
  "meshes": [
    {
      "primitives": [
        {
          "attributes": {
            "NORMAL": 1,
            "POSITION": 0,
            "TEXCOORD_0": 2
          },
          "indices": 3,
          "material": 0,
          "mode": 4
        }
      ],
      "name": "Mesh000"
    }
  ],
  "nodes": [
    {
      "mesh": 0,
      "name": "Mesh000",
      "children": [
        1
      ]
    },
    {
      "translation": [
        24.296165466308595,
        11.051440238952637,
        -22.87467384338379
      ],
      "rotation": [
        -0.025386948138475419,
        0.9247018098831177,
        0.06266098469495774,
        0.37464073300361636
      ],
      "camera": 0,
      "extras": {
        "camera::center": [
          -1.5935876369476319,
          5.987181663513184,
          3.8317553997039797
        ],
        "camera::eye": [
          24.296165466308595,
          11.051440238952637,
          -22.87467384338379
        ],
        "camera::up": [
          0.0,
          1.0,
          0.0
        ]
      },
      "name": "Camera"
    }
  ],
  "scene": 0,
  "scenes": [
    {
      "nodes": [
        0
      ],
      "name": "Scene-0"
    }
  ],
  "cameras": [
    {
      "type": "perspective",
      "name": "Camera",
      "perspective": {
        "zfar": 1864.06005859375,
        "znear": 0.018640602007508279,
        "aspectRatio": 1.7777777910232545,
        "yfov": 0.7853981852531433
      }
    }
  ],
  "buffers": [
    {
      "byteLength": 23471184,
      "uri": "dragon-glass.bin"
    }
  ]
}
